<svg id="组_1" data-name="组 1" xmlns="http://www.w3.org/2000/svg" width="2888" height="556" viewBox="0 0 2888 556">
  <defs>
    <style>
      .cls-1 {
        fill: #bcff2f;
      }

      .cls-1, .cls-2, .cls-3 {
        fill-rule: evenodd;
      }

      .cls-2 {
        fill: #fff;
      }
    </style>
  </defs>
  <path id="形状_2" data-name="形状 2" class="cls-1" d="M529.988,277.5c0,126.748-102.749,229.5-229.5,229.5s-229.5-102.749-229.5-229.5S173.744,48,300.491,48,529.988,150.747,529.988,277.5Z"/>
  <path id="形状_3" data-name="形状 3" class="cls-2" d="M754.928,161.358c60.487,0,90.733,34.81,90.733,77.706,0,30.942-16.881,60.124-54.863,71.376l56.971,97.747H779.9l-51.344-93.175H714.134v93.175H654V161.358H754.928Zm-3.516,49.928H714.134v61.179h37.278c22.5,0,33.058-11.6,33.058-30.942C784.47,223.24,773.917,211.286,751.412,211.286ZM1063,408.187h-60.14V381.465C990.905,398.342,969.8,410.3,943.43,410.3c-45.366,0-75.964-31.294-75.964-83.683V211.989h59.788V318.527c0,26.723,15.12,41.491,37.628,41.491,23.211,0,37.978-14.768,37.978-41.491V211.989H1063v196.2Zm164.59-106.538c0-26.722-14.77-41.49-37.63-41.49s-37.63,14.768-37.63,41.49V408.187h-60.14v-196.2h60.14v26.019c11.96-16.526,33.06-28.128,59.43-28.128,45.37,0,75.61,30.942,75.61,83.682V408.187h-59.78V301.649ZM1402.37,411c-57.67,0-99.17-38.677-99.17-100.913s40.8-100.912,99.17-100.912c57.33,0,97.77,37.975,97.77,97.749a150.454,150.454,0,0,1-1.06,17.579H1362.99c2.11,25.667,17.93,37.623,37.27,37.623,16.88,0,26.38-8.439,31.3-18.987h64.01C1486.07,381.465,1451.26,411,1402.37,411Zm-39.03-119.9h75.26c0-21.447-16.88-33.754-36.93-33.754C1381.98,257.347,1366.86,269.3,1363.34,291.1Zm269.39,117.086h-115V161.358h111.13c50.29,0,80.18,24.963,80.18,63.992,0,29.888-17.93,49.225-41.85,56.258,28.84,5.977,47.48,31.294,47.48,59.422C1714.67,381.817,1684.77,408.187,1632.73,408.187Zm-15.48-198.659h-39.38v51.687h39.38c19.7,0,30.6-8.791,30.6-25.669S1636.95,209.528,1617.25,209.528Zm4.22,95.637h-43.6v54.5h44.31c20.04,0,31.65-9.143,31.65-26.723S1641.52,305.165,1621.47,305.165Zm307.72,103.022h-60.14V381.465C1857.1,398.342,1836,410.3,1809.62,410.3c-45.36,0-75.96-31.294-75.96-83.683V211.989h59.78V318.527c0,26.723,15.13,41.491,37.63,41.491,23.21,0,37.98-14.768,37.98-41.491V211.989h60.14v196.2Zm164.59-106.538c0-26.722-14.77-41.49-37.63-41.49s-37.63,14.768-37.63,41.49V408.187h-60.13v-196.2h60.13v26.019c11.96-16.526,33.06-28.128,59.44-28.128,45.36,0,75.61,30.942,75.61,83.682V408.187h-59.79V301.649Zm162.13-92.473c26.02,0,48.53,11.954,60.49,29.888V148h60.13V408.187H2316.4V380.059C2305.49,397.99,2284.75,411,2255.91,411c-48.18,0-86.51-39.381-86.51-101.265S2207.73,209.176,2255.91,209.176Zm17.58,52.391c-22.51,0-42.9,16.876-42.9,48.169s20.39,48.874,42.9,48.874c22.86,0,42.91-17.228,42.91-48.522S2296.35,261.567,2273.49,261.567ZM2406.07,148h60.14V408.187h-60.14V148ZM2582.97,411c-57.68,0-99.18-38.677-99.18-100.913s40.8-100.912,99.18-100.912c57.32,0,97.76,37.975,97.76,97.749a152.607,152.607,0,0,1-1.05,17.579h-136.1c2.11,25.667,17.93,37.623,37.28,37.623,16.88,0,26.37-8.439,31.3-18.987h64C2666.67,381.465,2631.85,411,2582.97,411Zm-39.04-119.9h75.26c0-21.447-16.88-33.754-36.93-33.754C2562.57,257.347,2547.45,269.3,2543.93,291.1Zm214.53,117.086h-60.14v-196.2h60.14v32.7c13.71-20.745,35.17-34.809,61.54-34.809v63.641h-16.53c-28.48,0-45.01,9.845-45.01,43.6v91.066Z"/>
  <path id="形状_1" data-name="形状 1" class="cls-3" d="M453.887,316.852H359.065L173.545,127.77h94.822Zm-94.822,0H264.244L357,411.393h94.821Zm-159.753.265h64.932V220.978H199.312v96.139Zm-46.38,46.231h46.38v-46.5h-46.38v46.5Z"/>
</svg>